<mxfile host="65bd71144e">
    <diagram id="nVjxGMYKoKfakIifUdQ2" name="Page-1">
        <mxGraphModel dx="912" dy="658" grid="0" gridSize="10" guides="1" tooltips="1" connect="1" arrows="1" fold="1" page="1" pageScale="1" pageWidth="827" pageHeight="1169" background="none" math="0" shadow="0">
            <root>
                <mxCell id="0"/>
                <mxCell id="1" parent="0"/>
                <mxCell id="3" value="EC2 instance contents" style="points=[[0,0],[0.25,0],[0.5,0],[0.75,0],[1,0],[1,0.25],[1,0.5],[1,0.75],[1,1],[0.75,1],[0.5,1],[0.25,1],[0,1],[0,0.75],[0,0.5],[0,0.25]];outlineConnect=0;gradientColor=none;html=1;whiteSpace=wrap;fontSize=12;fontStyle=0;container=1;pointerEvents=0;collapsible=0;recursiveResize=0;shape=mxgraph.aws4.group;grIcon=mxgraph.aws4.group_ec2_instance_contents;strokeColor=#D86613;fillColor=none;verticalAlign=top;align=left;spacingLeft=30;fontColor=#D86613;dashed=0;" vertex="1" parent="1">
                    <mxGeometry x="150" y="100" width="370" height="200" as="geometry"/>
                </mxCell>
                <mxCell id="2" value="" style="sketch=0;aspect=fixed;html=1;points=[];align=center;image;fontSize=12;image=img/lib/mscae/Docker.svg;" vertex="1" parent="3">
                    <mxGeometry x="40" y="60" width="122.56" height="100.5" as="geometry"/>
                </mxCell>
                <mxCell id="4" value="" style="shape=image;verticalLabelPosition=bottom;labelBackgroundColor=#ffffff;verticalAlign=top;aspect=fixed;imageAspect=0;image=data:image/png,iVBORw0KGgoAAAANSUhEUgAAAa4AAADcCAYAAAAoaEXkAAAABmJLR0QA/wD/AP+gvaeTAAAACXBIWXMAAAsTAAALEwEAmpwYAAAAB3RJTUUH4wkXEBQTKuz7IAAAAB1pVFh0Q29tbWVudAAAAAAAQ3JlYXRlZCB3aXRoIEdJTVBkLmUHAAAgAElEQVR42u2deXgb1dWH3zOSvMa2EhKSKJB9cYjCDi07tEBpgQIKBWL2Lexby9KyUyj9IJStgQKFBGgwu4AWCrTQlkKBBigUBDg7AaIkZPO+a+73h5TiJI4t25I1I533ee5DsKSZM+feub85d+49FxRFURTFRYi6QFGUrqg5vnw/2/B7D+xdWln1jXpEUeFSFMWR1FZsl29j3wGc06HLuBm77Wb/E4sa1EOKCpeiKI5hXUX5RAv+Cozs5OPlQMhfWTVPPaWocCmKknGqK8r3At7q9otGTsDjfcI/95OYek3pTyx1gaIoHUTrZODN5B57zVxibS+q1xSNuBRFyZRoXQLc3oufvo9hH//jVc3qRUUjLkVR+ku0zuqlaAHsirBAvahoxKUoSn+J1knAIyk41GKBKTa0DqysMupZRYVLUZR0iNZ3gXdSdTwD/x1YWbWjelZJJzpUqCg5yrqK8nGpFK3Ek/AO1RXlc9S7ikZciqKkOtIqBD4HRqWpZ9nL/1jV2+ppRSMuRVFSxc1pEy0Aw7/qTyovVjcrKlyKovSZmorJhwAXp/s87e28od5W0hPQK4qSM1RXlBcBS4Ct++X+F7O//7H5KmCKRlyKovQOA4cBQ/vtodWIZtZQVLgURelDAARP9vMpB1RXlF+nnldUuBRF6THVFeV/ytCpj1sfn8WoKCpciqIkKVrTywcBu2bo9OXG2FtpLSgqXIqiJI8wARiWsY5GrFe1EhQVLkVResJzGT7/dloFSuqewxRFyWpqji0vMB6aHGBKO/Ap8Aq29TCWvRZotozVUPr4Z3aqT1ZbsZ3Hxi4C8gEPYiZjZBLICDAlQAyo91dWXa+tRIVLURQH0Yd9tvqDL4EvgEUCc8oqq97q6wHXV0zcXrBmANsTzw4yDMjr4if3+iurztOWosKlKEoGqT15jNht+cOBScD9wAS32G6ElzDmdkE+81dWrUxKnKeXDzVivmsZedYInh6estXAiIGVVWu05ahwKYqSmQjrEWA88F3c/R67BZiH4WP/41Xnx6Opcum411ciWfBTwL5AaR/OdZ6/supebT0qXIqi9IdQHV9egmFb4D5gnyy+1PeA48B8Y9qlBS+XC9yUomMv9FdWTdTWpMKlKEr6o6vfAweRzkzvzmMx0AaUp/SoNlP9T1RFtFU5H6+6QFFcJ1bDgTOBG3LUBePSclSLmcAPtYWpcCmKklrReg3Yjb69z1E6Zzd1gTvQoUJF6auYTB9vieUpNgYfgm2Jp7Wk2WqSZyImFcevOW5iCWL9wFg8jVF/p5FWMHv6K+d/oK7QiEtRsoLa6eUTbLgYYe/EveNJFK8x5AEeDMY2dqwmz26trihvJ77INQasBub4K6se7WGEdZaJ71Y8SEUr7fhAhqkbVLgUxX0RVMWEQvBMxZgBiJwBTAPyUpDaYf/EVHWA94xwoxjWAh/7K6vqNxGsSQi/wXAoqGT1E4IOwbqmohRFAdZXTNxJsK4H9gT8/fRgFwPWA/+2La4YNLfq0+qK8iuBa4mnKlL6l9/4K6suVTeocCmKY6mZXj7SCCHgEmCkA0z6BthaayZjvOmvrNpX3eBsdKhQyUmqK8oFuMfASUCxg0xT0cosI9QFzke3NVFyEjExiCdfLVZvKB0oUReocCmKI7EtrwC6K6+yWTCuLlDhUhRnNnxjAxSpJ5RN+EpdoMKlKM6MuOLzkvLUE0pHBN5SL6hwKYpDeyiT6KcUpeMDDR+pF5yPzipUcvOJzRaM0K6e6DVtQDuwDOFFsflXzLLe9drtq2yxOn0gaMq3PQNaGdNuPAeAOVDiWe0LcM56NVugUatWhUtRHBpxAdpJJcPbxIfPWoD5xnheH/j4p93tSmy2HNCwIFHu7/jB+oryCQIHA8OBAHAcUJiBVnE08KpWuxtuX0XJMWoqysXAC8Dh6o2NhEUwcq8Rc/vAyqolmTSmumLCQIz3BMT8OiFi/fVq40V/ZZW2CxUuRXEW64+fJGLkD8Dx6g3+SlzE/+6vrPrMiQZWV0weA+bARER0cD+c8lZ/ZdUV2jRUuBTFYZ1h+RzglBy8dAPUA3P9lVXnurPuJs8CcwrpXUB+pb+y6td6pzgPnVWo5DItOXjNrwPT/ZVVpW4VLQB/5efnQ9tA4AQw/03TaW6uPr5chww14lIUR0VcdwAX58CltgNfGsuz88C5n9ZkaV2OAOYRz/WY2kln7bFB/qcWrtc7RoVLUTLf2R0/+VSMmZ3ll/kGcK2/suqfuVCn6ysm7yfCTRizdwoPWwtsC9T5K6t0bzQVLkXJHOsqJo+zMIuy9PJqgLP9lVVP5Gg0fQTwEKnLR/mBv7JqV71rnIG+41JylkGVny/OskvaEA08AEzOVdEC8FdWvWDDGOCqFB1yl+qK8rv1rtGIS1Gc8GSeTUM/rcAV/sqqO7VmO6h5xQ6eGlq+Jr6NTV+7zJ39lZ9/qF7ViEtRMvnk9mSWhFqrEEaqaHVSx5X/jXmwxgJHpcDTf6u+/sf6wK/CpSiZI8/bfkYWXMbTAyurhhnDN1qjnVNS+VmTv7LqeWBvYEUfDuVnwYJX1KMZf+BUlNyluqK8CGhwcax1gb9y/iytyR7VeRnwLPD9XnecYiaVPTZ/gXozM2iSXaVfiIaCecQ3biwmnneuAPABg4DxwChgCPFZYHmJEiO+SHgdsAb4ElgCRBOfNQNNidIQCEeae/Hk1mrgfcCNM8auUdHqRchUWVUDHFhdUf4wcHKvHheMzNcHf424lOwUq12BGQlRGJAQrI7C1VdaEuLV2KFEgEcC4UjSGb6rK8rvAi50151rjvY/Nv9ZbWV9jr7OAH5PfEZmT/vDu/2VVRepF1W4FFcK1HZFYI3CMBHhVGAvYLADTKsjHk3NTgjakkA4UttJ5/UT4CkXufwqf2XVzdryUkNNRfmhBp5LjAD0hFZj2Hrg41U16kUVLsU9EdVpwEWAn3iqnQIHmxsDVgFrgecD4ci1m4hXO+BxwQ17Xlll1b3a+lItXpMnGUxVLyKv//grq3ZRD6pwKc4VqgDxWVnTgSOz4JL+CcyN2fJKSVHbWaRusWq6eNRfWXWytsQ0idf08uFG+IL4+9WedKO6tkuFS3GgYB0J/ByYDJRm4SU2Ait83tjYPJ8R48wlyS3+yqoCbY1pFq/jJo80llnWw5+9DPZh/soFtnpQhUvJrFhNAfYDfknq8r25AIPPa+PxgGU5RsHq/I9VlVZXlIsmeU0/60+cPEFs8xk9mHUtMKbssaov1HsqXEpmBGsccB/xIcGcfsIXMeTlxfBk/s3Xaf65VXO0dfYf1SeUnwD8oQc/+cg/t2on9ZwKl9K/gnUAcBpwgnqjQ/xlwOu18XhtvF7zbRrb/uM+/9z552hNZEK8Jl0EJJ1CyyDfHTi36t/qufSjC5BVsIYCrwJBnDWrrob4gmVfJo0QgVjMIhazaG0xFBS2Y/WflxaK8DNtpZnBP3f+XdUnTdoHmJZcFGBOA1S4NOJS0ihYk4ALgPMcZto7wAWCWWmQrx0ZgflsfHk2liftEdih/kfn/1lba4Yjr5MmvgPy3SS+2twmdvGQRxbqJI00o0l2c1K0pl4GfOZA0bonEI7sCfzHILc58klPINZu0dzopaXJgwjpKrNUtBzSSYr1QxGWJ1FnBfnGc4R6TCMuJbVR1iHEJ16McqB5MwPhyOXRUFCID1kucqidm8Zg5BXE8OWl9CF7HcL4sjkL1ru5vdWcMK4Ar2cS8VyUWxMf+u0Yo9pArSArDGZJzNu6ZNCDX7Q58lpOmXgI8HL3rQH8Dy/QflWFS+mzYB2xgwdP7DVgf4ea+FEgHNmpg8DmEc9D6J4bybIpKmlPkRTyvH/OgqPc1s5qT53kA/tEg9xBPDflhiwU0k1fYzqU+B+M3C8ec4OvrWl10aNfOWIJQM0pE49EeC6JTnX/0jkL3tCeR4VL6Xl0JYFwxERDwenArcA2DjX160A4su1Gtk/b3o+xXRlt5BW2k1dg05dFzGWz3fPEXnPaxJOBicRTfxWn6TQfAs8IZlnp7IWPZexaT59YhCECjOnmq7eVzV5wmfZCKlxK78TraeBoh5t5ZSAc+XXHP6yYNmVbY+RL195UHpvCknakF3eXGLNz6eyFjk4fVHPGBA9GZgKXZOD0Bnix7KEFP64/baIMmL2gX6Ox1TPGFebFPI3dCq2RXcpmz9fF4ipcStKCNS04CsOfge0cburyQDiyWST41VFTCzximlx9Y1k2eUUxfPk9ir6iIJPLHlxQ61DBGg1cDZxEhpcpJHgTeKLswYX39rMfLgFu71peTXHZQ4saUdKCzirMvigrhOELF4gWwFmd/dEjxib+4t61GNuipd5Ha1OPbrE5ThSt2jMneGvOmHATsBQ43SGiBbAPcE/NGRNMzYwJP649c1K/rLCz4HfAiq6/JIdob6TCpSQnWncR35LcDXwJvLKFz2ziOx27npYGH80NXowk7rYuStmDC692jFjNmCAANTMmHGaEj7C4qjv7M1gM8IIR+z81MyacF7d/fNpGk0oeXNiMJcd3aZPwsPZIKlxK14KVHw0FX8Zdu/i+GAhHYl0IV1U21I0IxFo8NFfndT1kKFzhJLtLH1hoamdMeB74EzDF6W5O/Hd7YFbNjAmx0gcWpfX9UtkDC/6OmK5yGZbUzJiQjTspqHApKRGt4cR3+XXb0MR7W/ogEI7YxDNoZA12TGhcl4dtA5bZtDQaeNoptq4/d+zQmrPHf2wsc0QntrqhWDVnj4/VnD3+/nT6ySC3YJmWLdth76k9lAqXsrlolSUEIOhC87vsqL1efpN1FWaExrX5mM3f3n3pv3/hUieYWHP2+H0s21rp0ja1ad82o+bs8Utrzhk/JB0n8N+/8FNgcReB4B7aS6lwKRuL1k7AMmCEC81fGwhHGrr6wtZPRVqAz1N4zveJbxiZUUSgcU0BsTar49LcaxwhWueMn4HwesIm2WjpsHvLaOCLmnPGn5oOn7V5fDt1ce4J2lOpcCnfitZWwAdAmUsvIblhMcOZKTrfXwXOJJ5yyBE0rc3DbhdEoOx3i57JtD21544/WoT7RfClMf9ipkqRCLNrzplwSqr9Nviez1tFeHgL552svZUKlwpWKCjRUHBnYDnuXoOX3PsrYV7XQzFJsS4QjhxswFEJa8WCprX5tDV67s64aJ03/lKEp7MkwtpiEcvMqT1v/FMAteePS9n9I8KDCO2dnHNH7bVUuBQYBMwD8l1+HWuT+VIgHGkD3u7DeWI2jIiGgqXAYCc6oqXWd2E0FPxexkTr/HH7I+YWxJAj5Se1549bQHvqfFhyz6J/IWZlZ+erPXtUvnZbKly5HGmNJZ4x3ZMFl5R8BnDh1j6c555twpFmYFuHt/VXo6Hg9pkJ/XgVwcr2aGuzd08+PgaovSA1kZcgR3V2LuPz/lB7MBWuXCUPeA3wZ8n1xJL9YuDZSIT43mE9pTEQjlyU+PdWOHto1Qv8NxoKbttvkdZFE6za88etIX1ZMNqBOuIZJr5IPHQtIr7wfC3xiTKZzOUXrL1g3NdFfpOSdlEya9H7xCdLbSJofA9FhSsHo61S4tmxxzjIrCeAB/vw+55uWXJRL87xow7/LnZJdX8QDQX9iT3J0htoGfsSLLZKw+zBuQg7JMr2CFMRO2hZBD2WTAGmYDE1/ne2N5YcgvBPBDsDkdeIxhrrTymMXn/XyTnKtRdLz5Oe4mxmguNmJ00KhCM7J7LPP0bP3x819PD77ySe3Icn+f2P2XgCiFsmsgxJRNbf6UlU2uNo65KxY41tUrXDdD0wTzA3lNy19J9JfL818ZsNRIBXAWovHLsrws3Et0npp01EzY/qLhozs+SupSnYhiT2R8S6aZN+daJ2YRpx5Vq0dTcww4Gm7QgQCEf+AuwCrOrh7+t68uXEmq+/9OAnLwfCkdaOPYqLqn0X4I8rjpqaFrGtvXh8EYaXUhGxGItfIjKp9K4l309StLqk9O4l75feteRgiUdkuyIsSJzLpDPyMiKX1l409pS+2//F5wjeTewNaE+mwpVLonUYcIFDzZPotGBRQlS+BH7Ww99X9+Kcc3vw3Zv7IpQO4EdGzLHpqTn7YITyPnb272IxruyOJdeV3rk4mmoTS+5YUld655IPSu9cMglhP4SqtA8bWsypvWTs6L77l+mbDL9qH6vClRusPjaYTzy5qXMx7NohInoMSHY9UnNiuKhHBMKR14Cvk/jq7EA4sunWIOvI7ESA3vB4NBTcK/XCxXN97OTPt7D2Lr19Sb9k7y+9Y8k/xXi2N/CjxHuwdEZf79X+dOyQPtr7xKbHbfjp+CLt1VS4sj3S8rS1xafqOlu3GNnBZgGuAWqS+OmXvRGuBOcl8Z37OvnbSty3v5cBno2Gphak6oB1Px1zRx9+Xg9yeOntS+4ZcMeifh16LblzYXvZHUteBsYB/07jqQYT3yizr7ze8X/aadcs8SpcWc/VuOCFrnR4bxQIR0wiyvljEj9dgum1cH1A1++r1tJJpo1AOFLtwrYuwFAw76fiYA2XjynG4jCxDD0sRiyD5TFjS29f/GImHVJ6+5IvSm9fsodY5re9uI5ky4UNPxv9nT5VnGVe7XC8RAIoRYUre6OtXYHr3REPmM6ymV+VxC9XBZ6L9C76yScKdDUJ4L1AOLJuC5/d79JmMSUaCp7R14PEbDMWGN+Ln1a34CsdMHPpaqc4pOS2pReCHJN4iEn1ELCxRf5Rd9m4kj48cWx0b1hitJ9V4cpa0SoCnnJPPCAfdhLZfEX3CXQ/6e0pA49HDPBCF195o5tI1q3cEQ0FB/TpRhd5uFfvfeCQwbctcNzklpLbljxtiz0lDevQBKEA7MN7a9uA25Y+s1GORI8GXCpc2cvVOGuRcdciEo609DKy+aiPp36ki8/+0oW969l4/ZCbGEAfNpqsu3ioxwg796ITn15y29J5TnVK2cxl87HYNU2TNh7r24Mdv0L4DGH2gFuXLtfuTYUrG6Ot8cAvXGTy+i4+W0gXC4xtrPf6KJjVwLtb+Ow/3fz8jy5uJodEQ8HebfOSX3hlL5LRPlly69InnO6UkluWfoCYkxEjqU7IW3fF6Fd6bdetS69GzI4lty49E0WFKwtFy0c8W4Kbpmu/1cVnXyXEqzPqtwl/XJuC83cm8sl0Mi+4vLlcEw0Fe55tXDiopxGHbWLnusUpJbd8MReRX6ZhevyedT8fvU0f7GpDUeHKUvYgnt7GTQPhL3URERm2vN/WZSk6/3LYbGOK25MUrnYXt5VtoWe7Jdf9YnQxwrAeZsT4ftmtX61zk2NK/m/pdQhfpFi4ShCO0S5KhUvZnDdcZm870N0U7de38PdUbeZYmyibilmXJN7LPejy9nJVT7ZAkXjnO6EHnfWXHsObrvSMRyZtYUPHPpSU5XRUVLiyg2go+KgLzW6i+5mBnQ0lriN1qZdq2Dg/YjNJTLyov2rUlJLJdWfj/klel0ZDyeUyNJY9sYfvdp4t/rU7h7hKblraiphjU/uuC6m7atSvtbdS4VKA5aHgQCDkQtM/3CSBbWeRTWdJdz+hdzkKOzt+Mxtn6VjTnSjWXT3qKCO8j4C31PWvHk4Ek+SOAbJvTyKMmPHc5GbHtNdHn0OoSfEswx9pj6XCpcTvh8twzz5RHXoGDknymxtNozbwQOL9V6rouGnfKmJbTjdVd82o44AwUABQMLQlG5pQstPje5IF4l3/zUvWudkpA+9qM0bM7qT2nfHUuqtHBbXXUuHKaaKh4CjcNf19A4sCf4w0Jfndjd5zjQhHKlNsS8f3bOsDL3SejaP+2lHnivC4WLChWPkG36BWMK4eM9wuGgpO6/YByWL7jtfeZZEeZ/l3JKU3frkA4b2kr7v7IuKRcdpzqXDlOje71O6erIPqmJrp9jTY0jFzx3udi9bIY8DcE19p0KEYQ2GgGfHF3N6Opnf/FTNys+vvvDQj5vOsGdEQcz0Yk+S1d1+M/ax2WypcuRxtDQKOdGVnAM/34OtNHf6bjpfbHfPBvb2ZaF038hSEJ7t6d5E3qNXtzWlaNBQc012lJVmWGpHmLBKufyA0pvA9l0d7LxWu3MUwDXDj/jzrh4cjPZkmveFF0rxAOLImDfZ0fKf16Uaidf3IHREe6K4zKhjREp855m6eTZFwLRePacmW26z4hq8aEV5P5dT4+utHXqIdmApXLkZbgrg2S/l9Pfz+hql7J6bJno7ruNZt0lm/guDrdqGtLRSNbcTEXP2ua6doKDghBcJVP+DaL+1sut88Yn6a4gXJ01FUuHKQy8Gdq4gC4ciVPR2tAWYmMsanw562Dv/+X/RV/8uR1QhbJ9sZeQfE8Ja2u71dnZEC4VqabTdb4XVfLU7xcGFewy+39Wo3psKVS9GWBzjApeY/04vfzCe5/blSRt1N216KmLIeJVy1DL6Bre7KFLk5W05LJKYlyYW2NVl544n5cwoXJI80YgZrb6bClUsMAn7gUtvf7UVEVNcxKkoTX5BYeNzwq5HbiGFmbw6SP6wFl2fTGL3iqKlb2jV7UXKHMHaW3nfvpfBYA0G20q5MhSuXuNjFjcSp7+XeAz41Bo/BvI2VaNE9LAahcEwDuLjrNmL+toXK+ygpP4gLF8Mn13iX9bZdbKFsg6LClUO4dXHnP4aFI07dgPEDDJ80zhzxE+KZ03vZ64PXHwOPq8cLt46GgkM3/aOQZMJcITsX2AorgFQu2JugXZkKV04QDQWPAfJdar6Tc9e9bYwsNDF5vK/vL8Rj4y1z9SQNH2yejsuI+VuSPhhQfcvorNtjXrCXIyaWwvdc22uPpsKVKxziUrvbA+HI6041zm616oom1N+aqoSq8TRQrm5nx23ec8s6hPVJXP9Ir92en203nhGpRrBTNrPQ6lHuRyVN6NTO9EdbHmAHl5r/Bycb5ylutzyFNgKSiskVvoFtNNqCuHfI8MDNnkzF1Jj4jtS7d/PbyRgKiG8Rk0URF+1I6h5HBDTi0ogrJxgA7OxS2yNONq64vOFm8ZqULTC1CgyeYldveeJdPi24Y8c/FP3863aEz5K4fsGThdt3WJDiRciKCldO4OaM2393qmENt47Y2SqI/UB8dso2DTQxKBzbBLZ7eycxhDe7yS0uTMoHmAez7u4TY/VoXV93bcT9KcJUuJSkOMmldscC4ciHDrbvEfEYk+phPSsvBparO6dh0dCUAR3/UHjZ13UIHyXx28L6mSOOzaabz2DytAtS4VJ6ziiX2u3YnIoNM0dsgzAeSbzbSmERL24XLi9IeSd/PyWp64dz628bkTXvvkVkawSPDhWqcClJEg0Fj3Sx+ZWOtUw4GqEg5e8uJN7tW3muFi4fMHqz8NnEPkX4JAkf7CsWB2dNxCUMRbBUuFS4lOTZy8W2L3aucJk7UrguZ+P1XJaN5Lk++9G+m/6h9PKV7WKZ05LygzEvrb959IDsiLjMCMR4UtpOFBWuLGeSS+1uY9OtQhxC88xtCxHq0hJtCeAB8bpeuDrdfqPop9H3RQgn4QeTV9j6RlbcgcJInVWowqUkSTQUFGCiS83/FIdm7iu47KsmhJ0QmtIlXuJz/VP14OhPgp0uJjYW5yGs63ZqPOzccEfgrSwQrh1T3D7WoKhwZSvt8Uez8S41fyFIzKnGFV8SXYzNtLTdFAUxt2fQgNjm77kAii+OrgTOTPIoezXcGXjB5cK1fyoPZ2CB9m4qXFlLEbEiwONS89cGwp84uusu/ln0ZSx2S3Hm73jElZcV7zG+34Xwh/FwTpL++HHDXYE6Nzqg9a5AEcKgVLYPsdiz4a5AhfZwKlxZSSvW6S42v8kNRhZfFH0fzNHx8Cg1RcRg+Wwwrn+ZEerSdxdG7wNzT5J+GdB49/BvGu8e7qo23Y65IZVto0N5rPHu4ZdrL6fClY2crMLVH+K14lmxmCQWjRJ/Iu5TQUA8WdH+tk/Cd+dblrknSb8MQXiw8bfDP0uVgY13BdI7lC6cmIo2sQV/3NL42+H/p92cCle2MdnFtrtqf4+iC1YssGAXSConXxIlK4YK86KhqQO6r2jrQpBZPfDP5MbfDjeNs4Y/3zhr+PGN943oUWaKxlnDv9c4a/hjjb8dbrDMwsZZw+en4+IbZw2fhEVZ2mafxssVjbOG/1C7uv5HJ3emgWgoaCWiFremm7k5EI5c5TajW+8c7m338hl93OyvbU0eDR+Vuj2DRhOwQyAcWZjMlxvuGX6uGGb1rk8wVSC/MMjH/9v/KnGYdkOeFxktcJKBK7bQCe1QeP6Kj1MsXCHg2X56/A8UnbtihfZ8GnG5nSLiGQzcSqkrQ4yLV7QXnb9iImLuTiwWNb1ZYGq3ZUUb9AKDk/1y8Xkr7kXM4YhZ2nOfUY6Y50TsxQjNIG1AC9DmFRoQ86kRc8WWfp9q0YqrobkqXYvUNykGY/6hXZ4KVzZQ6vJo1s2iS9F5Ky+ybGt0r3IZWmBaPNkwXGgBxT3020tF560ca4R3UrD5YjJplr7BK+nJiyjsnOZhwm/XvAkTG+8Zfql2eypcbmeoy+0flxjudC0FF0SXYTEY4d6edkaxek82DKJbQGFvflh87so9gakId6aps69H+GnRuSuHFp21IuXrBRt/N+zDfhKtDg88Zmbj74aVa9enwuVmhrjc/iDuXYP2bQRx9sq1ReesPA+RfRBqk03nY9qz4rYQoKDXvjt35WdF56y8xGM8xQhzEJr7GIUZhGYj3Fp0zsqSonNW3pGOi268b9hEhAn9Llzxcl3jvYN13oAKl2spc7n9w4jv3JwVFJ294i3bZiRwQ7cbBdpgN2fNbdHnyUH55y5vLDp75WkiZghwCHAlYhb34B1QPcJs4HBgWPHZK69Ir1ybMxBT3E/vtzYtxxWdu8bU3ztSxasfnsqUFBMNBc8Afu/yy9gzEI68k43103j/0LeA3Trr2O0Wi9p/DnL1LsgdOCUQjjySXp+Do6gAABDMSURBVF9ufQhG9kXYJvHAJiCLjJjni2es+md/Xmzz/UMH2plODi18VDRj1U7aC6YXr7ogPQ/5WXANZwJZKVxFZ63au/H+obsg/Bjh2o6fGRtol2wZiyhMvy+/eQV4JdMXuv6eoZZt8boDfL5j4/1DhhSdtXq1doPpQ4cKXdph9AOnZvWTxVmrPiiaseq6ojNXCfAwsEI8hpYvirJpHGJgrtxw+XkcAjgj0rGsy7QLVOFyI1mRNCgaCk7PifD4zFWnen2esdhyYOuXhdkkXHm5csOJmD+JxHNNOqBMRlHhUuHKGHvmSoXlnRJtXv/nIYOy7LJ8uVB3TQ9t/VGS68b6qxzWNHtrfQ2jwuU6YllyHeflSoVFjwkKW9g52MW0ZXu9Nc4eeirCDg4SrXixY+O0G1ThUuHK0AhMNBS8PidqrJ0hwFFZdlUtWR1pzR4yWcTMdpxoCeD1ztJuUIXLdfdUFl3LldFQ0J8DdXZjFl5TdTZWVPPDQ6Xp4cHDsPg0Q+u1ui/YB2o3qMLluhGMDJ77K+BdYAmp2Z7EB9yQzZUVPSo4HpjRp4Ns2GPQFhCwimJ4BrZiFWV0h5imbKwvI/ZgRFb0KhdlP5aGhwbna1eowuUmajN47hWBcGQPYEdgPMhBwAPAsj4c88LoIbtnZVuJhoKC8Kted6IxATFYpe3kj2ugZL+1lB24htID1lK6z3p8w1ozeXnt2VRXTQ8PkqY5QwqABU63VcRsX3z6mqweqs0kOvMlPazP4Ll3j4aCJYFwpA6oSwjWax066j2Bc4CxwNbACJJZd1bUuBDIxhfOuwPHJPndBmAlsBr4xsTkBf/hqw62imLHCgIGjB3/b7z3gtblGX3ozq6O0+udiG2qHG7lB8DxBSetmY+iEZfLWJPh8/99Sx8EwpG3A+HIicC+iahsNDAFeJCuZ6GNjYaCF2dTJa0N7eIF/tXN15YAl4qY4cAYYEeBfQLhyBEjXvhkdtEATiZmtZqYxEUrIVhY0PZNHnZDxp4NTTYJV/Ojg8ZgTJWThwYRLvFYse8WnrRaRSvdEa26IPVEQ8EAsDyDJtQCowPhyPpe2F6AYXuE44GJxHcTDnSIyoKBcOTTLKmn14Dvd4iSFwOLEhHqc4FwJKm8d01/GHwYwp82urF8NjWvDCFW7cvUXRbD8IPAc5HX3V5PTY8NvgTD7QkxdmKf9VThCWuO1Z6vH4NvdUHahCOTN1kpcAAQ7ukPA+FIMzAPmBcNBSUhWAWJMgW4IRoKnhcIR1a5XLTmAFFgB2AV8YkMzYFwpMcvpQpPXPNi02ODr6HDzMS2VfmZFC0QPJ7SNlcvhK++zbLyhw9aBmyT8KOjRMsY8ysR667C4zUvoUZcWcDq0E7SRlszmU25sywQjozW2uhUtCQQjqR0i+OGucPyPVb7R0A5QMN/SmlZkrlcy+IxlB60Bs+A2J+B6wsq1rznpjpqrhxcAczBWWmrlhF/h/VqQcWaB/ROUuHKxs6xnh5unZ4GDg+EIy9qbfRbZ2sB7XiMrH18OJLBN8jiM/gP+wbxGojPLvwSi+8UHLtmjZN92PT4wIGC5x1gUiaCKOLDxa2Jshr4xBJesGPyEWJaja+9pfAn1UZbuwpXtgrXR8SHoTI2kkF8PdngxPCf0g+0vezfv/rlwX9r+7JQsDLXv0mezaDQqvh0/Y0+MC8ZeLbwuLVzHCX6T261E4YZGDk7g2Y8WTB9zXHaip2PzipM3xPBnMybQDHwPa2N/mP1g9usavu6gEyKFgY8A1vjNmxahENFmN385FZtzU8NfskhovUZ8B7C2Z3a3D9lqYqWe9DJGenrO+YCdzrAlJc0su7Xir8h0/42tpC3TQvGSNf3vjE/an5yKwN8iXA3sBoPzxdMW5vWBfQtT2+1lzHsiuEswBFbgBhBZwW6KzBQ0kFiRl6rQx4OXg+EI5o7Lc2sCAVHmr5lKElNJ9wm+I/8Bk9p+7eLoXvG18CbBrm78Jg176Ykqnp88A7GY24WOChxTzip77mh4Ji112sLVuFS4YoL1+dk5iVzJwEg3wmEI+9pzaStvguBGhywB5ZpEwadsDwFk0M2dA9mDfGF2MuAFcST99YhrE88nCW+a/IxDCI+RO0nvg6wHGT0xk3RUV3g3wt+slaH012GDhWmiUA4YqKh4EKHCJcQX5ulDyrp42c4ZONGqyiGlW8w7X2t7v+JzOBE2b3b70qXx3EarZYdO1ybrvvQyRnpZanDooJntErS4tedcdC2KHljG+Ppp5ydHskJZZ+8Y6obtAWrcCkb85rD7JkWDQUP0WpJqWgNBt52kk2+IW3fRj9atlROLJi2bp62YBUuZRMC4cgfHWjWH6Oh4BStnZTxJOCcfZes+BYrjt1g0RGbPHJ+QWjdXG26KlzKllnsMHt8wLPR0FTd5K7v0datOGydnAh4y9oQQUvnZWZBaN092npVuJSuqXSgTZPAPKxV0wfRmhY8BLjMUUYZsErasYpsHQrsrMC1+Ueuv1xbrwqX0j1O3fb+uGgo+Cutnl5FWkEMLzvNLtMuDNh7/eZpnhSA3+Qfuf5GdYMKl5I8HzjUrsuioaBOB+6ZaO0MOHI9nPgM3iEdllVpAQEjnJV/xPpLtfVmD/po1j+d3UPAaeoJJZ34As2U/nA12HpbbwhCgevyD6/WSCvL0AXI/cPLKlxKuskb0wRG9HE0LlhtwKH5h1W/pi1DIy6l91GX7uGjpA/LMPDYFfGJGcoaGw4uPLT6Q3VFljZ3dUG/cYu6QEnbE2iejacspu+0hL8gZpSKlkZcSgpYHprqF8x69YSSakybUHb0SnxDWx2cFrBfuCH/hzXXa4vQiEtJ1ROCsWuBv6gnlFTjGdSGb3jLt4+iuVmaEO7X1pAb6OSMfiLw3Kd2NBR8DTjYYaa1J4qSpE7gkCzwG/jfpIzcJqZNM4cCAXVB/+K4SRrC1RhmA3laO91igAOAh51kkf+EKJ4BOd9vrwa2y/9BzRptphpxKannXOBeB9mzLhCOrNBqSfrBY7WTRMu7dQu+QW2Ytpwf9a8DWrSFqnAp6eFp4HagQF2h9Em3WizKfrw6vmGk5Pxqi3XteHVvrRxBJ2f0M4FwZA3wuHpC6Sv55Q1IvibUTZSVRQet00VsKlxKGrlBXaD0WbgmNKhgJYpYPKItQoVLSW/UtQx4UD2h9AoDVmkbhTvWd9WZPysxvDamBOFyhJcQlmWrcLXQ9idtGLmDvuPKHNcAFUCRukLpkW61WZQd+Q12yxbfbR1IzPt338HrbaAemNn2d/9txsQKwAwQ4VSDnAqUZ4VDhA8H7N+kEzNUuJR+iLpWRkPBR4Bz1BtKT8jfrg6Pv72zLBmP5B1Qd0pnv/EdUG2ApkS5NVFo+8eAfYyRfYEhwNbAzsAkV+mWkau1VahwKf3HBSpcSo+whcKd6zZEGht4EzjQyqOtp4fz7V//ZuL3NL5RJj5je018kXX8DOLJk5i9q22xu2AmIkzCMAwYnLCgFrARajBMyYBH6oyxI9owVLiU/ou6YstDU44W5Bn1htIdJiYU7VpD3qim+Lotw6Mgs/L2q03JxpZF+9Vs2A6kowA2Aa8nSpe0vVFyhBGe71efwBf5+9Z/qa0jt9DJGRlGkJeA+eoJpdubtbidor3WY9rkcsCXt1/dyakSrVTg26/uBTCvxscw+6d4xegO3ipcSgairmbgePWE0h3eQW3X5X+vTvL2rZ+Zt2+dI/NL5u1bf4gRnuun2YQfePapX6YtQ4VLyYx4fQDyf+oJpYvY/JMhsxb90g2W5u9THxLh3yKQ5nKWtoscfYhTFzgFcyNwOt++9O6n01IcDU0uA/FpHSThLSjJwHnrLDu2m5sc5du7/rttbw24D+GstOwRJnzo26v+A22SOfoYpy5wDtGjgnsi/Es9oWzCzwLhyO1uNLzt7eIbgZRPV/ft2aB9Vw6jQ4UOIvBc5G3gOvWE0oFn3CpaCYG5RmAPhMaUvduCi7RZqHApDmJAPTeiswyVOF8Dp7j9Irx7Nrzr26OhGOFxhFgfhWuJ19M6S5uGCpfiIEr/EjHAQcTXzyi5zfRAOJI1W3X4vttQAewDvNLrg9j2bvKdNs0Cn+PoOLFDiYaCP+jTDa64nUsC4cid2Xpxze+WjPSI/R6wFd9m6uiOg3zfaXhNm4aiwuVs8foVcKV6Iud4PRCOHJgLF9o6r+gAganAXd189TLf7o23adNQVLjcIV6PAic61LxTgadc6Nazgd841LZlgXBkdC629bZ5RRMR/gCMBAYkCiAP+XZrOEN7A2UDuo7L+ZwOHAwMdaBtpYFwpNGFDwOlDjTLAGuBXXK1oft2b1wAfKfpnRLx+WLjTFzAxiBSqd2AosLlIgLhSBswLBoK1pKZxa9dsaNL3TrAgTbZwN6BcGRtrrf5wj3qDLAoURRlM3RWoXvYrsOTuVM4yqW+HOuwSCtmYJ9AOKLLIBRFhSurIq+vgRGAk5Kr+qOhYKEL3bmDg2wR4KQR4cg72soVRYUrG8UrCuzusMjraDf5MBoKljgs4joqEI7oOxxFUeHKavH6CNgJaHGAOQb4rctc+DcH2XJeIBx5Xlu1ovQMnQ7vUqKh4HbApw4wJQbsFwhH/uUCn40BFme43ZvE+X8UCEde1pasKBpx5VLk9Rk+yoDaDJviAa51iduucsDDWgNwqIqWomjElbuR1xFTfHjkG8CfYVOuDIQjv3Z4tLUkw2YYgfLh4cgCbbmKohFX7j55eKU9EI4MBF7PsCm/jIaC2ztUtAYlRCuTE1oWB8IRS0VLUVS4cp7hz0Y2dMYHAZdm0BQv8F+HuunfGR5heDcQjozX1qooKXpgVxdkF9FQ8BTgoQw+lKwApjohA0Q0FCxIRKJ7ZtCMawPhyI3RUFAC4YjRFqooKlxK5x12AJhHfMFyJoiBZ6tA+L81GfZDFBieodMbDGMCz0WWaYtUlNSiQ4VZSGKh8phE5JWhdhVbFw0FT8uQYO0fDQWrMyhaLwDDVbQURSMupXed+B7A2xk04d/E13m19MO1eoAnyGw2j9OBhwPhiO7SqygqXEofOvR84D7glAyacR3waCAc+SLl1zdtShlGTia+6Wamtn95DTgrEI4s0RanKCpcSso6+OCOGN4CijNkggH+CnJpIPzJJ3092IpQcISB64FMbjLYDpwUCEce1xamKCpcSvoisDuBCzNc/+uIv4NbACwDqgLhyFdd2DwMmEA8Qe44YDqQ6Snmc4CfB8KRb7RVKYoKl9I/AjYP2M2BptUDjUAB4MTdilcAOwTCkdXaihRFhUvpf/HaC/gFcKh6Y4tsSIz7LnCLZnRXFBUuxQGsDu3kaaPtK+KTG3SZxOaitXMgHPlQ3aEoKlyK8yKw3YGzgNPUG7wA/C4QjryqrlAUFS7F+QLmBW4iPokjP0eiMAO0Ac8DpwTCkSZtCYqiwqW4T8BKgb2BHycisWzlVeB+YF4gHFmuNa8oKlxKdoiYBzgOuAYYRXzWn1tpBdYCM4H7NLpSFBUuJftFbBKwPTAV+BlQ5BLTZwHvEF839h+tSUVR4VJyVcimBUdhOB04gPjC4DKgMMMRVS3xxc1vAnMD4cgHWlOKosKlKFuKyLYDRhLPdjEG2CURofnTcLoW4CPgQ2BxoiwjxqeBF9Kf3FdRFBUuJftFbSjIHmC2B4LAEOJDjflAHuBJtE0DxIjP9Gshnk2jGvgU+BjLnhd45rOl6lFFURRFURRFURRFURRFURRFyTn+H3PALwR2vqHaAAAAAElFTkSuQmCC;" vertex="1" parent="3">
                    <mxGeometry x="140" y="60" width="195.45" height="100" as="geometry"/>
                </mxCell>
            </root>
        </mxGraphModel>
    </diagram>
</mxfile>